<svg xmlns="http://www.w3.org/2000/svg"
     viewBox="0 0 300 300"
     width="300"
     height="300">

  <defs>
    <linearGradient id="grad" x1="0%" y1="0%" x2="100%" y2="0%">
      <stop offset="0%" stop-color="#093b8e"/>
      <stop offset="100%" stop-color="#71f6b8"/>
    </linearGradient>
  </defs>

  <!-- Blob animado -->
  <path fill="url(#grad)" transform="translate(150 150) scale(1.18)">
    <animate
      attributeName="d"
      dur="3s"
      repeatCount="indefinite"
      keyTimes="0;0.5;1"
      calcMode="spline"
      keySplines="0.86 0 0.07 1;0.86 0 0.07 1"
      values="
      M-103.988209,-0.656077C-105.300364,-80.697475,-83.649821,-104.768424,0,-104.378317C83.649821,-103.98821,104.644287,-85.290014,104.378317,0C104.112347,85.290014,87.586284,103.332132,0,104.378317C-87.586284,105.424502,-102.676055,84.633937,-103.988209,-0.656077Z;
      M-104.378317,0C-104.378317,-57.646553,-57.646553,-104.378317,0,-104.378317C57.646553,-104.378317,104.378317,-57.646553,104.378317,0C104.378317,57.646553,57.646553,104.378317,0,104.378317C-57.646553,104.378317,-104.378317,57.646553,-104.378317,0Z;
      M-101.637638,0C-101.697258,-84.683383,-84.710072,-101.622989,-0.00602,-101.622989C84.698032,-101.622989,101.637638,-84.683383,101.637638,0.014648C101.637638,84.71268,84.685991,101.652286,-0.00602,101.652286C-84.698032,101.652286,-101.637638,84.71268,-101.637638,0Z
      "
    />
  </path>

  <!-- Icono blanco -->
  <path fill="#ffffff"
        transform="translate(28 3) scale(1.03)"
        d="M60.000002,123.665974c0,0,0,0,58.288492-38.856776c58.274689,38.856776,58.274689,38.856776,58.274689,38.856776s0,67.999359,0,67.999359-42.740363,0-42.740363,0s0-25.356777,0-38.856776c-12,0-19.068652,0-31.068652,0c0,13.499999,0,38.856776,0,38.856776q-42.754166,0-42.754166,0c0,0,0-67.999359,0-67.999359Z"/>
</svg>
